<svg width="64" height="51" viewBox="0 0 64 51" fill="none" xmlns="http://www.w3.org/2000/svg">
<path d="M35.6257 1.35901C36.483 0.488836 37.6455 0 38.8577 0C40.0699 0 41.2325 0.488836 42.0898 1.35901L62.6615 22.2464C63.5186 23.1168 64 24.2972 64 25.528C64 26.7588 63.5186 27.9392 62.6615 28.8097L42.0898 49.697C41.2276 50.5425 40.0728 51.0104 38.8742 50.9998C37.6756 50.9892 36.529 50.5011 35.6814 49.6405C34.8338 48.7799 34.353 47.6157 34.3426 46.3987C34.3322 45.1817 34.793 44.0092 35.6257 43.1338L48.0007 30.1697L4.5715 30.1697C3.35906 30.1697 2.19628 29.6806 1.33896 28.8102C0.481639 27.9397 0 26.7591 0 25.528C0 24.297 0.481639 23.1164 1.33896 22.2459C2.19628 21.3754 3.35906 20.8864 4.5715 20.8864L48.0007 20.8864L35.6257 7.92229C34.7687 7.05185 34.2872 5.87144 34.2872 4.64065C34.2872 3.40985 34.7687 2.22944 35.6257 1.35901Z" fill="white"/>
</svg>
