<svg width="70" height="56" viewBox="0 0 70 56" fill="none" xmlns="http://www.w3.org/2000/svg">
<path d="M2.82828 0.00011808C2.07818 0.00011808 1.35879 0.295117 0.828385 0.820218C0.297979 1.34532 0 2.05751 0 2.80011C0 3.54272 0.297979 4.25491 0.828385 4.78001C1.35879 5.30511 2.07818 5.60011 2.82828 5.60011H9.10707L16.5285 35C17.1592 37.492 19.4133 39.2 22.0069 39.2H57.2756C59.8295 39.2 61.9988 37.52 62.6691 35.084L70 8.4001H64.0776L57.2727 33.6H22.004L14.5855 4.20011C14.279 2.99395 13.5726 1.92449 12.5793 1.16299C11.586 0.401495 10.3633 -0.0079882 9.10707 0.00011808H2.82828ZM53.7374 39.2C49.0848 39.2 45.2525 42.994 45.2525 47.6C45.2525 52.206 49.0848 56 53.7374 56C58.3899 56 62.2222 52.206 62.2222 47.6C62.2222 42.994 58.3899 39.2 53.7374 39.2ZM28.2828 39.2C23.6303 39.2 19.798 42.994 19.798 47.6C19.798 52.206 23.6303 56 28.2828 56C32.9354 56 36.7677 52.206 36.7677 47.6C36.7677 42.994 32.9354 39.2 28.2828 39.2ZM36.7677 0.00011808V14.0001H28.2828L39.596 25.2001L50.9091 14.0001H42.4242V0.00011808H36.7677ZM28.2828 44.8C29.878 44.8 31.1111 46.0208 31.1111 47.6C31.1111 49.1792 29.878 50.4 28.2828 50.4C26.6877 50.4 25.4545 49.1792 25.4545 47.6C25.4545 46.0208 26.6877 44.8 28.2828 44.8ZM53.7374 44.8C55.3325 44.8 56.5657 46.0208 56.5657 47.6C56.5657 49.1792 55.3325 50.4 53.7374 50.4C52.1422 50.4 50.9091 49.1792 50.9091 47.6C50.9091 46.0208 52.1422 44.8 53.7374 44.8Z" fill="white"/>
</svg>
