<svg width="91" height="91" viewBox="0 0 91 91" fill="none" xmlns="http://www.w3.org/2000/svg">
<path d="M48.6718 63.9559L48.6875 63.95L48.7031 63.9437C50.022 63.4031 50.9288 63.5979 51.6783 64.1322C52.5149 64.7285 53.2528 65.8211 53.9592 67.2769C53.9593 67.2771 53.9594 67.2773 53.9595 67.2775L60.6522 81.1736L60.6524 81.1741C61.3351 82.5894 61.5931 83.808 61.4216 84.7456C61.2658 85.5974 60.7266 86.378 59.3771 86.931L59.375 86.9319C53.0485 89.542 45.4156 90.9583 38.3945 89.2624C34.2008 88.2493 30.3393 85.4327 27.1076 82.3442C24.5298 79.8807 22.4269 77.3205 20.9035 75.4659C20.5193 74.9982 20.1719 74.5754 19.8631 74.2103C16.9642 70.7827 13.6677 64.6462 9.83692 56.6668C6.021 48.7184 3.11002 41.0823 2.29008 36.7947C2.27578 36.7199 2.26114 36.6435 2.24619 36.5655C1.81794 34.3304 1.13906 30.7872 1.03923 26.894C0.935654 22.8544 1.46043 18.5478 3.44892 14.9933L3.4493 14.9926C6.771 9.0441 11.9126 5.02117 18.195 2.41165C19.6553 1.81357 20.9627 1.71636 22.0136 2.02412C23.0414 2.32511 23.9307 3.04298 24.5415 4.30184L24.5505 4.32039L24.5603 4.33855L32.178 18.5183C32.881 19.9711 33.261 21.2046 33.1881 22.1576C33.1535 22.6086 33.0185 22.9825 32.7708 23.3027C32.5192 23.6278 32.1061 23.9559 31.4256 24.2354L22.5348 27.7741L22.5347 27.7741L22.5253 27.7779C20.7003 28.5259 19.462 29.7494 18.943 31.3176C18.4321 32.8613 18.6732 34.5725 19.4588 36.2192L30.8848 62.2402L30.9268 62.3357L30.9875 62.4205C32.2614 64.1987 33.6588 65.8713 35.5033 66.7283C37.4195 67.6187 39.6323 67.554 42.349 66.3029L48.6718 63.9559ZM88.8163 38.9738L72.4657 55.3245H64.8834L77.0397 43.1681L78.7468 41.461H76.3326H46.1178V36.5205H76.3326H78.7468L77.0397 34.8134L64.8657 22.6394H72.4487L88.8163 38.9738Z" fill="white" stroke="white" stroke-width="2"/>
</svg>
