<svg width="82" height="71" viewBox="0 0 82 71" fill="none" xmlns="http://www.w3.org/2000/svg">
<path d="M66.5439 38.5152L42.8813 62.1389V70.1693H50.9118L74.5354 46.5067M80.6948 37.3457L75.7049 32.3559C75.517 32.1493 75.2884 31.9838 75.0335 31.8698C74.7786 31.7558 74.5028 31.6956 74.2236 31.6932C73.6388 31.7321 73.0931 31.9271 72.7032 32.3559L68.8049 36.2542L76.7965 44.0508L80.6948 40.1525C81.4354 39.3728 81.4354 38.1253 80.6948 37.3457ZM35.0847 54.5762H7.79659V15.5932L38.983 35.0847L70.1693 15.5932V23.3898H77.9659V7.79659C77.9659 3.50847 74.4575 0 70.1693 0H7.79659C3.50847 0 0 3.50847 0 7.79659V54.5762C0 58.8643 3.50847 62.3727 7.79659 62.3727H35.0847V54.5762ZM70.1693 7.79659L38.983 27.2881L7.79659 7.79659H70.1693Z" fill="white"/>
</svg>
