<svg width="37" height="37" viewBox="0 0 37 37" fill="none" xmlns="http://www.w3.org/2000/svg">
<path d="M20.3329 0C22.407 0.00553112 23.4597 0.0165934 24.3687 0.0424053L24.7263 0.0553111C25.1393 0.0700608 25.5468 0.0884978 26.039 0.110622C28.0007 0.202808 29.3392 0.512551 30.5136 0.967946C31.7304 1.43625 32.7554 2.07048 33.7805 3.09374C34.718 4.0154 35.4434 5.13028 35.9063 6.36079C36.3616 7.53523 36.6714 8.87376 36.7636 10.8373C36.7857 11.3277 36.8041 11.7352 36.8189 12.15L36.8299 12.5077C36.8576 13.4148 36.8686 14.4676 36.8723 16.5417L36.8742 17.9171V20.3324C36.8787 21.6772 36.8646 23.022 36.8318 24.3664L36.8207 24.7241C36.806 25.1389 36.7875 25.5464 36.7654 26.0368C36.6732 28.0004 36.3598 29.3371 35.9063 30.5133C35.4447 31.7445 34.7192 32.8597 33.7805 33.7804C32.8586 34.7176 31.7438 35.443 30.5136 35.9062C29.3392 36.3616 28.0007 36.6713 26.039 36.7635C25.6015 36.7841 25.164 36.8025 24.7263 36.8188L24.3687 36.8299C23.4597 36.8557 22.407 36.8686 20.3329 36.8723L18.9575 36.8741H16.5442C15.1988 36.8788 13.8534 36.8646 12.5084 36.8317L12.1508 36.8207C11.7131 36.8041 11.2755 36.785 10.8381 36.7635C8.87642 36.6713 7.53793 36.3616 6.36167 35.9062C5.13135 35.4441 4.01695 34.7186 3.09656 33.7804C2.15822 32.8591 1.43215 31.7441 0.968983 30.5133C0.5136 29.3389 0.203866 28.0004 0.111683 26.0368C0.0911425 25.5993 0.0727058 25.1618 0.0563734 24.7241L0.0471554 24.3664C0.0131806 23.022 -0.00218489 21.6772 0.00106379 20.3324L0.00106379 16.5417C-0.00408179 15.1969 0.00943979 13.8521 0.0416243 12.5077L0.0545299 12.15C0.0692791 11.7352 0.0877156 11.3277 0.109839 10.8373C0.202022 8.87376 0.511756 7.53707 0.967139 6.36079C1.43011 5.12902 2.15762 4.01379 3.0984 3.09374C4.01856 2.15617 5.13222 1.43069 6.36167 0.967946C7.53793 0.512551 8.87458 0.202808 10.8381 0.110622C11.3285 0.0884978 11.7378 0.0700608 12.1508 0.0553111L12.5084 0.0442488C13.8528 0.0114913 15.1976 -0.00264516 16.5423 0.00184357L20.3329 0ZM18.4376 9.21853C15.9928 9.21853 13.6481 10.1898 11.9193 11.9186C10.1905 13.6474 9.21934 15.9922 9.21934 18.4371C9.21934 20.882 10.1905 23.2267 11.9193 24.9556C13.6481 26.6844 15.9928 27.6556 18.4376 27.6556C20.8825 27.6556 23.2272 26.6844 24.9559 24.9556C26.6847 23.2267 27.6559 20.882 27.6559 18.4371C27.6559 15.9922 26.6847 13.6474 24.9559 11.9186C23.2272 10.1898 20.8825 9.21853 18.4376 9.21853ZM18.4376 12.9059C19.164 12.9058 19.8832 13.0488 20.5543 13.3266C21.2254 13.6045 21.8352 14.0118 22.3489 14.5253C22.8626 15.0388 23.2701 15.6485 23.5481 16.3195C23.8262 16.9906 23.9694 17.7098 23.9695 18.4361C23.9696 19.1625 23.8267 19.8818 23.5488 20.5529C23.271 21.224 22.8637 21.8338 22.3502 22.3475C21.8367 22.8612 21.227 23.2687 20.556 23.5468C19.885 23.8249 19.1658 23.9681 18.4395 23.9682C16.9726 23.9682 15.5657 23.3854 14.5285 22.3482C13.4912 21.3109 12.9085 19.904 12.9085 18.4371C12.9085 16.9701 13.4912 15.5633 14.5285 14.526C15.5657 13.4887 16.9726 12.9059 18.4395 12.9059M28.1187 6.45297C27.5074 6.45297 26.9213 6.69578 26.4891 7.12799C26.0569 7.56019 25.8141 8.14638 25.8141 8.75761C25.8141 9.36883 26.0569 9.95503 26.4891 10.3872C26.9213 10.8194 27.5074 11.0622 28.1187 11.0622C28.7299 11.0622 29.316 10.8194 29.7482 10.3872C30.1804 9.95503 30.4232 9.36883 30.4232 8.75761C30.4232 8.14638 30.1804 7.56019 29.7482 7.12799C29.316 6.69578 28.7299 6.45297 28.1187 6.45297Z" fill="white"/>
</svg>
