<svg width="49" height="34" viewBox="0 0 49 34" fill="none" xmlns="http://www.w3.org/2000/svg">
<path d="M4.22838 0H21.3712C22.2805 0 23.1526 0.358213 23.7956 0.995837C24.4386 1.63346 24.7998 2.49826 24.7998 3.4C24.7998 4.30174 24.4386 5.16654 23.7956 5.80416C23.1526 6.44179 22.2805 6.8 21.3712 6.8H4.22838C3.31906 6.8 2.44699 6.44179 1.80401 5.80416C1.16103 5.16654 0.799805 4.30174 0.799805 3.4C0.799805 2.49826 1.16103 1.63346 1.80401 0.995837C2.44699 0.358213 3.31906 0 4.22838 0ZM28.2284 27.2H45.3712C46.2805 27.2 47.1526 27.5582 47.7956 28.1958C48.4386 28.8335 48.7998 29.6983 48.7998 30.6C48.7998 31.5017 48.4386 32.3665 47.7956 33.0042C47.1526 33.6418 46.2805 34 45.3712 34H28.2284C27.3191 34 26.447 33.6418 25.804 33.0042C25.161 32.3665 24.7998 31.5017 24.7998 30.6C24.7998 29.6983 25.161 28.8335 25.804 28.1958C26.447 27.5582 27.3191 27.2 28.2284 27.2ZM4.22838 13.6H45.3712C46.2805 13.6 47.1526 13.9582 47.7956 14.5958C48.4386 15.2335 48.7998 16.0983 48.7998 17C48.7998 17.9017 48.4386 18.7665 47.7956 19.4042C47.1526 20.0418 46.2805 20.4 45.3712 20.4H4.22838C3.31906 20.4 2.44699 20.0418 1.80401 19.4042C1.16103 18.7665 0.799805 17.9017 0.799805 17C0.799805 16.0983 1.16103 15.2335 1.80401 14.5958C2.44699 13.9582 3.31906 13.6 4.22838 13.6Z" fill="white"/>
</svg>
