<svg width="85" height="85" viewBox="0 0 85 85" fill="none" xmlns="http://www.w3.org/2000/svg">
<path fill-rule="evenodd" clip-rule="evenodd" d="M1.47046 1.04149C2.10479 0.49043 2.88823 0.13979 3.72177 0.0338889C4.55531 -0.0720121 5.40154 0.0715804 6.1535 0.446518L82.646 38.695C83.3532 39.0475 83.9481 39.5902 84.3639 40.2621C84.7797 40.934 85 41.7085 85 42.4986C85 43.2888 84.7797 44.0633 84.3639 44.7352C83.9481 45.4071 83.3532 45.9498 82.646 46.3023L6.1535 84.5508C5.4016 84.927 4.55499 85.0718 3.72081 84.9667C2.88662 84.8616 2.10236 84.5114 1.46725 83.9604C0.832137 83.4095 0.37473 82.6825 0.152904 81.8714C-0.0689209 81.0604 -0.0451937 80.2018 0.221083 79.4042L11.1085 46.7485H34.001C35.1281 46.7485 36.209 46.3007 37.0059 45.5037C37.8029 44.7067 38.2506 43.6258 38.2506 42.4986C38.2506 41.3715 37.8029 40.2906 37.0059 39.4936C36.209 38.6966 35.1281 38.2488 34.001 38.2488H11.1085L0.216833 5.59307C-0.0480721 4.79585 -0.0707722 3.938 0.151599 3.12788C0.373971 2.31776 0.835688 1.59173 1.47046 1.04149Z" fill="white"/>
</svg>
