<svg width="38" height="37" viewBox="0 0 38 37" fill="none" xmlns="http://www.w3.org/2000/svg">
<path d="M19.084 0C15.4374 0 11.8727 1.08134 8.84066 3.10728C5.80863 5.13322 3.44545 8.01276 2.04996 11.3818C0.654473 14.7508 0.289349 18.4579 1.00076 22.0345C1.71218 25.611 3.46818 28.8962 6.04671 31.4748C8.62524 34.0533 11.9105 35.8093 15.487 36.5207C19.0635 37.2321 22.7707 36.867 26.1397 35.4715C29.5087 34.076 32.3883 31.7128 34.4142 28.6808C36.4401 25.6488 37.5215 22.0841 37.5215 18.4375C37.5166 13.5491 35.5725 8.86225 32.1159 5.40561C28.6592 1.94896 23.9724 0.00488111 19.084 0ZM30.034 14.2208V15.4119C30.034 15.5031 30.0158 15.5933 29.9804 15.6773C29.945 15.7613 29.893 15.8373 29.8277 15.9009C29.7624 15.9645 29.685 16.0144 29.6001 16.0475C29.5152 16.0807 29.4245 16.0966 29.3334 16.0941C27.3868 15.9561 25.5245 15.2453 23.981 14.0512V22.7685C23.9808 23.7333 23.7882 24.6884 23.4147 25.5779C23.0411 26.4675 22.494 27.2737 21.8054 27.9494C21.1105 28.642 20.2848 29.1894 19.3764 29.5597C18.4679 29.9301 17.4948 30.116 16.5138 30.1066C14.5409 30.1031 12.6473 29.329 11.237 27.9494C10.3398 27.0449 9.69357 25.9223 9.36189 24.6922C9.0302 23.4621 9.02448 22.1669 9.3453 20.9339C9.63846 19.7502 10.2303 18.6624 11.0655 17.7756C11.6884 17.0143 12.4735 16.4018 13.3636 15.983C14.2536 15.5641 15.2259 15.3495 16.2096 15.3547L17.7215 15.3547V18.4946C17.7221 18.5858 17.7033 18.6761 17.6664 18.7595C17.6294 18.8428 17.5751 18.9174 17.507 18.9781C17.439 19.0388 17.3588 19.0843 17.2718 19.1116C17.1848 19.1389 17.0929 19.1473 17.0024 19.1363C16.1246 18.8726 15.1787 18.9601 14.3641 19.3802C13.5495 19.8004 12.9298 20.5204 12.6357 21.3885C12.3417 22.2566 12.3961 23.205 12.7877 24.0337C13.1792 24.8625 13.8772 25.5068 14.7346 25.8309C15.2324 26.1167 15.7892 26.2845 16.3608 26.3232C16.8033 26.3416 17.2458 26.2863 17.6661 26.1536C18.3682 25.9173 18.9789 25.4676 19.413 24.8673C19.847 24.267 20.0826 23.5461 20.087 22.8053L20.087 6.92144C20.0867 6.83436 20.1037 6.74809 20.1368 6.66757C20.17 6.58705 20.2187 6.51386 20.2802 6.4522C20.3417 6.39055 20.4147 6.34162 20.4952 6.30825C20.5756 6.27487 20.6618 6.25768 20.7489 6.25769H23.3578C23.5274 6.25745 23.6907 6.32235 23.8139 6.43901C23.937 6.55566 24.0107 6.71515 24.0197 6.88456C24.1151 7.69799 24.3736 8.48382 24.7798 9.19503C25.1859 9.90624 25.7313 10.5282 26.3834 11.0238C27.2649 11.6855 28.3118 12.0912 29.409 12.1964C29.5733 12.2105 29.727 12.2836 29.8416 12.4022C29.9561 12.5209 30.0239 12.677 30.0322 12.8417L30.034 14.2208Z" fill="white"/>
</svg>
