<svg width="376" height="376" viewBox="0 0 376 376" fill="none" xmlns="http://www.w3.org/2000/svg">
<path d="M321.206 54.7089C303.881 37.3021 283.247 23.5003 260.508 14.1078C237.768 4.71526 213.377 -0.0801474 188.756 0.00101323C85.5919 0.00101323 1.51156 83.6608 1.51156 186.309C1.51156 219.208 10.203 251.168 26.4523 279.368L0 376L99.196 350.056C126.593 364.908 157.391 372.804 188.756 372.804C291.92 372.804 376 289.144 376 186.497C376 136.677 356.539 89.8648 321.206 54.7089ZM188.756 341.22C160.792 341.22 133.395 333.7 109.399 319.6L103.731 316.216L44.7799 331.632L60.4623 274.48L56.6834 268.652C41.1436 243.969 32.8939 215.435 32.8764 186.309C32.8764 100.957 102.786 31.3969 188.567 31.3969C230.135 31.3969 269.246 47.5649 298.533 76.8928C313.036 91.2534 324.53 108.337 332.347 127.151C340.163 145.966 344.148 166.138 344.068 186.497C344.446 271.848 274.537 341.22 188.756 341.22ZM274.159 225.412C269.435 223.156 246.384 211.876 242.227 210.184C237.881 208.68 234.858 207.928 231.646 212.44C228.434 217.14 219.554 227.668 216.909 230.676C214.263 233.872 211.429 234.248 206.705 231.804C201.982 229.548 186.866 224.472 169.106 208.68C155.124 196.273 145.865 181.045 143.031 176.345C140.386 171.645 142.653 169.201 145.11 166.757C147.188 164.689 149.833 161.305 152.1 158.673C154.368 156.041 155.313 153.973 156.824 150.965C158.336 147.769 157.58 145.137 156.446 142.881C155.313 140.625 145.865 117.689 142.086 108.289C138.308 99.2648 134.34 100.393 131.506 100.205H122.436C119.224 100.205 114.312 101.333 109.966 106.033C105.809 110.733 93.7166 122.013 93.7166 144.949C93.7166 167.885 110.533 190.069 112.8 193.077C115.067 196.273 145.865 243.272 192.724 263.388C203.871 268.276 212.563 271.096 219.365 273.164C230.513 276.736 240.716 276.172 248.84 275.044C257.91 273.728 276.615 263.764 280.394 252.86C284.362 241.956 284.362 232.744 283.039 230.676C281.717 228.608 278.882 227.668 274.159 225.412Z" fill="white"/>
</svg>
